# xmcd CD database file
#
# Track frame offsets:
#	150
#	25546
#	52583
#	69831
#	96568
#	112885
#	133211
#	145965
#	163520
#	177594
#	198683
#	218501
#
# Disc length: 3320 seconds
#
# Revision: 0
# Processed by: cddbd v1.5.2PL0 Copyright (c) Steve Scherf et al.
# Submitted via: CDex 1.81
#
DISCID=a50cf60c
DTITLE=The Jamie Saft Quartet - Blue Dream
DYEAR=2018
DGENRE=Jazz
TTITLE0=Vessels
TTITLE1=Equanimity
TTITLE2=Sword's Water
TTITLE3=Violets for Your Furs
TTITLE4=Blue Dream
TTITLE5=Infinite Compassion
TTITLE6=Sweet Lorraine
TTITLE7=Walls
TTITLE8=Decamping
TTITLE9=Words and Deeds
TTITLE10=Mysterious Arrangements
TTITLE11=There's a Lull in My Life
EXTD=YEAR: 2018
EXTT0=
EXTT1=
EXTT2=
EXTT3=
EXTT4=
EXTT5=
EXTT6=
EXTT7=
EXTT8=
EXTT9=
EXTT10=
EXTT11=
PLAYORDER=
